HIERARCHY
ROOT Hips
{
	OFFSET -0.179506 -22.333345 2.821913
	CHANNELS 6 Xposition Yposition Zposition Zrotation Yrotation Xrotation 
	JOINT LeftUpLeg
	{
		OFFSET 6.951974 -9.140623 -0.681533
		CHANNELS 3 Zrotation Yrotation Xrotation
		JOINT LeftLeg
		{
			OFFSET 3.427654 -37.519855 -0.449580
			CHANNELS 3 Zrotation Yrotation Xrotation
			JOINT LeftFoot
			{
				OFFSET -1.359570 -39.796059 -4.369333
				CHANNELS 3 Zrotation Yrotation Xrotation
				JOINT LeftToe
				{
					OFFSET 2.635814 -5.579078 11.928840
					CHANNELS 3 Zrotation Yrotation Xrotation
					End Site
					{
						OFFSET 0.000000 0.000000 0.000000
					}
				}
			}
		}
	}
	JOINT RightUpLeg
	{
		OFFSET -6.767048 -9.052170 -0.431982
		CHANNELS 3 Zrotation Yrotation Xrotation
		JOINT RightLeg
		{
			OFFSET -3.829005 -38.256897 -0.885003
			CHANNELS 3 Zrotation Yrotation Xrotation
			JOINT RightFoot
			{
				OFFSET 1.577377 -39.841461 -4.231180
				CHANNELS 3 Zrotation Yrotation Xrotation
				JOINT RightToe
				{
					OFFSET -2.537174 -4.814398 12.334795
					CHANNELS 3 Zrotation Yrotation Xrotation
					End Site
					{
						OFFSET 0.000000 0.000000 0.000000
					}
				}
			}
		}
	}
	JOINT Spine
	{
		OFFSET -0.253288 10.896323 -2.669631
		CHANNELS 3 Zrotation Yrotation Xrotation
		JOINT Spine1
		{
			OFFSET 0.548704 13.518043 0.109247
			CHANNELS 3 Zrotation Yrotation Xrotation
			JOINT Spine2
			{
				OFFSET 0.145701 5.292222 2.542457
				CHANNELS 3 Zrotation Yrotation Xrotation
				JOINT Neck
				{
					OFFSET -0.277840 21.387037 -4.285703
					CHANNELS 3 Zrotation Yrotation Xrotation
					JOINT Head
					{
						OFFSET 0.515184 6.496960 5.134897
						CHANNELS 3 Zrotation Yrotation Xrotation
						End Site
						{
							OFFSET 0.000000 0.000000 0.000000
						}
					}
				}
				JOINT LeftShoulder
				{
					OFFSET 7.884473 12.174932 -3.408961
					CHANNELS 3 Zrotation Yrotation Xrotation
					JOINT LeftArm
					{
						OFFSET 9.097692 3.046888 -0.886815
						CHANNELS 3 Zrotation Yrotation Xrotation
						JOINT LeftForeArm
						{
							OFFSET 25.961220 -1.277207 -2.745643
							CHANNELS 3 Zrotation Yrotation Xrotation
							JOINT LeftHand
							{
								OFFSET 24.923361 0.898606 -0.117091
								CHANNELS 3 Zrotation Yrotation Xrotation
								End Site
								{
									OFFSET 0.000000 0.000000 0.000000
								}
							}
						}
					}
				}
				JOINT RightShoulder
				{
					OFFSET -8.175920 11.883285 -3.861528
					CHANNELS 3 Zrotation Yrotation Xrotation
					JOINT RightArm
					{
						OFFSET -9.601238 3.255117 -0.914307
						CHANNELS 3 Zrotation Yrotation Xrotation
						JOINT RightForeArm
						{
							OFFSET -25.374195 -1.332924 -2.140099
							CHANNELS 3 Zrotation Yrotation Xrotation
							JOINT RightHand
							{
								OFFSET -25.529810 0.777228 -0.555919
								CHANNELS 3 Zrotation Yrotation Xrotation
								End Site
								{
									OFFSET 0.000000 0.000000 0.000000
								}
							}
						}
					}
				}
			}
		}
	}
}
MOTION
Frames: 7
Frame Time: 0.033333
-25.990946 28.994902 92.019615 178.408361 -0.400820 76.621306 3.798199 -3.689877 6.356684 -9.671458 -19.732831 22.673335 0.826317 8.631612 -17.399842 nan nan nan 2.657804 -2.977187 16.620014 3.522812 6.956547 -1.927561 5.815154 -3.945660 -5.717390 nan nan nan -0.442626 4.795949 -9.061124 9.373815 -7.311635 15.764076 4.221309 0.861929 2.706011 -6.430595 9.157345 39.843697 1.652714 16.260516 -6.382468 -23.313398 -3.077772 7.334306 -65.196137 -1.671068 14.162733 2.699189 -18.555378 -0.073858 -12.725224 -19.404487 -18.186462 19.322995 3.519643 1.374728 51.050243 -1.103232 10.355992 -5.282463 24.629698 10.611438 14.083727 9.516636 -1.512113 
-26.074677 29.010986 92.016708 178.610671 -0.464157 76.607591 3.624960 -3.797355 6.374829 -9.659245 -19.814850 22.623523 0.848835 8.618749 -17.260694 nan nan nan 2.502644 -3.068772 16.587111 3.602017 6.864877 -1.808853 5.743835 -3.978268 -5.815456 nan nan nan -0.382224 4.842040 -9.096285 9.285797 -7.216976 15.801922 4.200306 0.882040 2.697417 -6.622713 9.259405 39.900703 1.554387 16.377417 -6.520875 -23.364338 -3.077558 7.372440 -65.263115 -1.497436 14.049864 2.899085 -18.719157 -0.149546 -12.768429 -19.269182 -18.226739 19.309122 3.536917 1.418374 51.064528 -1.098305 10.139771 -5.255392 24.891514 10.325341 14.096031 9.404324 -1.456016 
-26.162941 29.018141 92.015869 178.799010 -0.569568 76.695670 3.411947 -3.927760 6.219881 -9.632050 -19.730721 22.680355 0.870650 8.612740 -17.282225 nan nan nan 2.319486 -3.127232 16.451076 3.637343 6.719860 -1.709223 5.691792 -3.967765 -5.939064 nan nan nan -0.323358 4.920563 -9.198209 9.186969 -7.130182 15.929514 4.108047 0.911108 2.507398 -6.665016 9.358614 39.882270 1.411339 16.524881 -6.500550 -23.314835 -2.986783 7.295991 -65.436385 -1.268051 14.159958 3.173231 -18.719522 -0.523370 -13.039385 -19.544336 -18.791053 19.172253 3.584833 1.370496 51.197043 -1.061722 10.494379 -5.196824 24.720339 10.199470 14.153295 9.600080 -1.954000 
-26.255756 29.035196 92.023285 179.014192 -0.703223 76.725163 3.173242 -4.025615 6.217292 -9.591189 -19.745443 22.585829 0.893886 8.621147 -17.257237 nan nan nan 2.101916 -3.243877 16.436566 3.586454 6.630914 -1.685083 5.729272 -3.936162 -6.044701 nan nan nan -0.301437 4.962441 -9.235088 9.108812 -7.064916 15.962564 4.020097 0.983603 2.390501 -6.745299 9.503980 39.862771 1.372109 16.607073 -6.397540 -23.341446 -2.876899 7.265575 -65.427831 -1.130226 14.270615 3.086681 -18.579912 -0.604321 -13.253810 -20.264739 -19.547367 19.344300 3.531220 1.541383 51.169087 -1.248781 10.552488 -5.430716 25.314958 10.303269 14.124194 9.737549 -1.633328 
-26.335087 29.070217 92.039871 179.227064 -0.805166 76.617120 3.007346 -4.058923 6.391799 -9.617296 -19.828861 22.457072 0.940538 8.557198 -17.159684 nan nan nan 1.941657 -3.297052 16.577537 3.535795 6.575951 -1.646187 5.662757 -3.944795 -6.150834 nan nan nan -0.225186 4.973805 -9.129200 8.979654 -7.008558 15.976993 3.922893 1.091296 2.282369 -6.767377 9.617650 39.946232 1.244107 16.713489 -6.384948 -23.279286 -2.702449 7.189484 -65.442864 -1.055736 14.409687 2.965732 -18.419037 -0.582779 -13.237324 -20.725181 -19.990665 19.221500 3.619976 1.601299 51.389989 -1.124093 10.883370 -5.413870 24.978384 10.352134 14.228565 10.032035 -2.009249 
-26.422363 29.103348 92.054115 179.369889 -0.894926 76.493343 2.821583 -4.174854 6.614476 -9.600327 -19.826294 22.286301 0.993811 8.516710 -17.057706 nan nan nan 1.812783 -3.302351 16.713916 3.481214 6.535760 -1.584235 5.614548 -3.948429 -6.219623 nan nan nan -0.164891 5.048241 -9.070358 8.869244 -6.927872 16.116780 3.857084 1.199621 2.164100 -6.838737 9.661211 39.972202 1.051441 16.888621 -6.448280 -23.207578 -2.627377 7.214774 -65.554603 -0.987259 14.492039 3.078764 -18.474303 -0.602490 -13.631967 -20.775758 -19.964121 19.050874 3.639728 1.571099 51.570501 -0.978062 11.099610 -5.415906 24.709302 10.084058 14.850492 10.167943 -2.707875 
-26.514084 29.120518 92.053772 179.477467 -0.954120 76.497393 2.672191 -4.300384 6.644862 -9.569070 -19.715574 22.187356 1.028388 8.493756 -17.022385 nan nan nan 1.719932 -3.314350 16.661497 3.443404 6.460700 -1.471596 5.590420 -3.955638 -6.263248 nan nan nan -0.114236 5.160844 -9.151282 8.813400 -6.850598 16.197500 3.832568 1.271834 2.160501 -7.018088 9.748694 39.963537 0.917956 17.032890 -6.543985 -23.254386 -2.665382 7.331932 -65.580620 -0.929880 14.428423 3.035564 -18.640253 -0.673548 -13.874762 -20.771648 -19.935648 19.057347 3.607936 1.621856 51.524824 -0.941055 11.009131 -5.400196 24.856593 9.996682 15.036639 10.159844 -2.613793 
